<svg width="481" height="40" viewBox="0 0 481 40" fill="none" xmlns="http://www.w3.org/2000/svg">
<path d="M68.0527 15.2861C70.25 15.2861 71.9346 15.7646 73.1064 16.7217C74.2783 17.6787 74.8643 19.1338 74.8643 21.0869V32H71.7441L70.8799 29.7734H70.7627C70.2939 30.3594 69.8154 30.8379 69.3271 31.209C68.8389 31.5801 68.2773 31.8535 67.6426 32.0293C67.0078 32.2051 66.2363 32.293 65.3281 32.293C64.3613 32.293 63.4922 32.1074 62.7207 31.7363C61.959 31.3652 61.3584 30.7988 60.9189 30.0371C60.4795 29.2656 60.2598 28.2891 60.2598 27.1074C60.2598 25.3691 60.8701 24.0898 62.0908 23.2695C63.3115 22.4395 65.1426 21.9805 67.584 21.8926L70.4258 21.8047V21.0869C70.4258 20.2275 70.2012 19.5977 69.752 19.1973C69.3027 18.7969 68.6777 18.5967 67.877 18.5967C67.0859 18.5967 66.3096 18.709 65.5479 18.9336C64.7861 19.1582 64.0244 19.4414 63.2627 19.7832L61.7832 16.7656C62.6523 16.3066 63.624 15.9453 64.6982 15.6816C65.7822 15.418 66.9004 15.2861 68.0527 15.2861ZM70.4258 24.4121L68.6973 24.4707C67.252 24.5098 66.2461 24.7686 65.6797 25.2471C65.123 25.7256 64.8447 26.3555 64.8447 27.1367C64.8447 27.8203 65.0449 28.3086 65.4453 28.6016C65.8457 28.8848 66.3682 29.0264 67.0127 29.0264C67.9697 29.0264 68.7754 28.7432 69.4297 28.1768C70.0938 27.6104 70.4258 26.8047 70.4258 25.7598V24.4121ZM88.7803 15.3154C90.5283 15.3154 91.9346 15.7939 92.999 16.751C94.0635 17.6982 94.5957 19.2217 94.5957 21.3213V32H90.1279V22.4346C90.1279 21.2627 89.9131 20.3789 89.4834 19.7832C89.0635 19.1875 88.3994 18.8896 87.4912 18.8896C86.124 18.8896 85.1914 19.3535 84.6934 20.2812C84.1953 21.209 83.9463 22.5469 83.9463 24.2949V32H79.4785V15.623H82.8916L83.4922 17.7178H83.7412C84.0928 17.1514 84.5273 16.6924 85.0449 16.3408C85.5723 15.9893 86.1533 15.7305 86.7881 15.5645C87.4326 15.3984 88.0967 15.3154 88.7803 15.3154ZM106.095 28.7334C106.583 28.7334 107.057 28.6846 107.516 28.5869C107.984 28.4893 108.448 28.3672 108.907 28.2207V31.5459C108.429 31.7607 107.833 31.9365 107.12 32.0732C106.417 32.2197 105.646 32.293 104.806 32.293C103.829 32.293 102.95 32.1367 102.169 31.8242C101.397 31.502 100.787 30.9502 100.338 30.1689C99.8984 29.3779 99.6787 28.2793 99.6787 26.873V18.9775H97.54V17.0879L100.001 15.5938L101.29 12.1367H104.146V15.623H108.731V18.9775H104.146V26.873C104.146 27.498 104.322 27.9668 104.674 28.2793C105.035 28.582 105.509 28.7334 106.095 28.7334ZM116.7 9.20703V13.8506C116.7 14.6611 116.671 15.4326 116.612 16.165C116.563 16.8975 116.524 17.415 116.495 17.7178H116.729C117.081 17.1514 117.496 16.6924 117.975 16.3408C118.463 15.9893 119 15.7305 119.586 15.5645C120.172 15.3984 120.802 15.3154 121.476 15.3154C122.657 15.3154 123.688 15.5254 124.566 15.9453C125.445 16.3555 126.129 17.0049 126.617 17.8936C127.105 18.7725 127.35 19.915 127.35 21.3213V32H122.882V22.4346C122.882 21.2627 122.667 20.3789 122.237 19.7832C121.808 19.1875 121.144 18.8896 120.245 18.8896C119.347 18.8896 118.639 19.0996 118.121 19.5195C117.604 19.9297 117.237 20.54 117.022 21.3506C116.808 22.1514 116.7 23.1328 116.7 24.2949V32H112.232V9.20703H116.7ZM146.832 23.7822C146.832 25.1494 146.646 26.3604 146.275 27.415C145.914 28.4697 145.382 29.3633 144.679 30.0957C143.985 30.8184 143.146 31.3652 142.159 31.7363C141.183 32.1074 140.079 32.293 138.849 32.293C137.696 32.293 136.637 32.1074 135.67 31.7363C134.713 31.3652 133.878 30.8184 133.165 30.0957C132.462 29.3633 131.915 28.4697 131.524 27.415C131.144 26.3604 130.953 25.1494 130.953 23.7822C130.953 21.9658 131.275 20.4277 131.92 19.168C132.564 17.9082 133.482 16.9512 134.674 16.2969C135.865 15.6426 137.286 15.3154 138.937 15.3154C140.47 15.3154 141.827 15.6426 143.009 16.2969C144.2 16.9512 145.133 17.9082 145.807 19.168C146.49 20.4277 146.832 21.9658 146.832 23.7822ZM135.509 23.7822C135.509 24.8564 135.626 25.7598 135.86 26.4922C136.095 27.2246 136.461 27.7764 136.959 28.1475C137.457 28.5186 138.106 28.7041 138.907 28.7041C139.698 28.7041 140.338 28.5186 140.826 28.1475C141.324 27.7764 141.686 27.2246 141.91 26.4922C142.145 25.7598 142.262 24.8564 142.262 23.7822C142.262 22.6982 142.145 21.7998 141.91 21.0869C141.686 20.3643 141.324 19.8223 140.826 19.4609C140.328 19.0996 139.679 18.9189 138.878 18.9189C137.696 18.9189 136.837 19.3242 136.3 20.1348C135.772 20.9453 135.509 22.1611 135.509 23.7822ZM159.825 15.3154C161.573 15.3154 162.979 15.7939 164.044 16.751C165.108 17.6982 165.641 19.2217 165.641 21.3213V32H161.173V22.4346C161.173 21.2627 160.958 20.3789 160.528 19.7832C160.108 19.1875 159.444 18.8896 158.536 18.8896C157.169 18.8896 156.236 19.3535 155.738 20.2812C155.24 21.209 154.991 22.5469 154.991 24.2949V32H150.523V15.623H153.937L154.537 17.7178H154.786C155.138 17.1514 155.572 16.6924 156.09 16.3408C156.617 15.9893 157.198 15.7305 157.833 15.5645C158.478 15.3984 159.142 15.3154 159.825 15.3154ZM167.896 15.623H172.789L175.88 24.8369C175.978 25.1299 176.061 25.4277 176.129 25.7305C176.197 26.0332 176.256 26.3457 176.305 26.668C176.354 26.9902 176.393 27.3271 176.422 27.6787H176.51C176.568 27.1514 176.646 26.6582 176.744 26.1992C176.852 25.7402 176.983 25.2861 177.14 24.8369L180.172 15.623H184.962L178.033 34.0947C177.613 35.2275 177.066 36.1699 176.393 36.9219C175.719 37.6836 174.942 38.2549 174.063 38.6357C173.194 39.0166 172.237 39.207 171.192 39.207C170.685 39.207 170.245 39.1777 169.874 39.1191C169.503 39.0703 169.186 39.0166 168.922 38.958V35.4131C169.127 35.4619 169.386 35.5059 169.698 35.5449C170.011 35.584 170.338 35.6035 170.68 35.6035C171.305 35.6035 171.842 35.4717 172.291 35.208C172.74 34.9443 173.116 34.5879 173.419 34.1387C173.722 33.6992 173.961 33.2158 174.137 32.6885L174.4 31.8828L167.896 15.623ZM186.69 29.9053C186.69 28.9873 186.939 28.3428 187.438 27.9717C187.945 27.6006 188.556 27.415 189.269 27.415C189.962 27.415 190.558 27.6006 191.056 27.9717C191.563 28.3428 191.817 28.9873 191.817 29.9053C191.817 30.7842 191.563 31.4189 191.056 31.8096C190.558 32.2002 189.962 32.3955 189.269 32.3955C188.556 32.3955 187.945 32.2002 187.438 31.8096C186.939 31.4189 186.69 30.7842 186.69 29.9053ZM200.343 32H195.875V9.20703H200.343V32ZM220.074 15.623V32H216.646L216.046 29.9053H215.812C215.46 30.4619 215.021 30.916 214.493 31.2676C213.966 31.6191 213.385 31.8779 212.75 32.0439C212.115 32.21 211.456 32.293 210.772 32.293C209.601 32.293 208.58 32.0879 207.711 31.6777C206.842 31.2578 206.163 30.6084 205.675 29.7295C205.196 28.8506 204.957 27.708 204.957 26.3018V15.623H209.425V25.1885C209.425 26.3604 209.635 27.2441 210.055 27.8398C210.475 28.4355 211.144 28.7334 212.062 28.7334C212.97 28.7334 213.683 28.5283 214.2 28.1182C214.718 27.6982 215.079 27.0879 215.284 26.2871C215.499 25.4766 215.606 24.4902 215.606 23.3281V15.623H220.074ZM239.645 23.7822C239.645 25.1494 239.459 26.3604 239.088 27.415C238.727 28.4697 238.194 29.3633 237.491 30.0957C236.798 30.8184 235.958 31.3652 234.972 31.7363C233.995 32.1074 232.892 32.293 231.661 32.293C230.509 32.293 229.449 32.1074 228.482 31.7363C227.525 31.3652 226.69 30.8184 225.978 30.0957C225.274 29.3633 224.728 28.4697 224.337 27.415C223.956 26.3604 223.766 25.1494 223.766 23.7822C223.766 21.9658 224.088 20.4277 224.732 19.168C225.377 17.9082 226.295 16.9512 227.486 16.2969C228.678 15.6426 230.099 15.3154 231.749 15.3154C233.282 15.3154 234.64 15.6426 235.821 16.2969C237.013 16.9512 237.945 17.9082 238.619 19.168C239.303 20.4277 239.645 21.9658 239.645 23.7822ZM228.321 23.7822C228.321 24.8564 228.438 25.7598 228.673 26.4922C228.907 27.2246 229.273 27.7764 229.771 28.1475C230.27 28.5186 230.919 28.7041 231.72 28.7041C232.511 28.7041 233.15 28.5186 233.639 28.1475C234.137 27.7764 234.498 27.2246 234.723 26.4922C234.957 25.7598 235.074 24.8564 235.074 23.7822C235.074 22.6982 234.957 21.7998 234.723 21.0869C234.498 20.3643 234.137 19.8223 233.639 19.4609C233.141 19.0996 232.491 18.9189 231.69 18.9189C230.509 18.9189 229.649 19.3242 229.112 20.1348C228.585 20.9453 228.321 22.1611 228.321 23.7822ZM266.407 21.2627C266.407 22.1904 266.295 23.1084 266.07 24.0166C265.855 24.915 265.523 25.7305 265.074 26.4629C264.625 27.1855 264.059 27.7666 263.375 28.2061C262.701 28.6357 261.9 28.8506 260.973 28.8506C260.24 28.8506 259.591 28.6748 259.024 28.3232C258.468 27.9717 258.077 27.5176 257.853 26.9609H257.618C257.208 27.459 256.671 27.8984 256.007 28.2793C255.343 28.6602 254.537 28.8506 253.59 28.8506C251.803 28.8506 250.426 28.3184 249.459 27.2539C248.492 26.1797 248.009 24.7734 248.009 23.0352C248.009 21.6875 248.297 20.501 248.873 19.4756C249.449 18.4404 250.27 17.6299 251.334 17.0439C252.398 16.458 253.653 16.165 255.099 16.165C256.046 16.165 257.018 16.2529 258.014 16.4287C259.02 16.5947 259.806 16.7754 260.372 16.9707L260.079 23.123C260.06 23.3281 260.045 23.5332 260.035 23.7383C260.035 23.9434 260.035 24.0752 260.035 24.1338C260.035 24.9639 260.147 25.5156 260.372 25.7891C260.606 26.0527 260.865 26.1846 261.148 26.1846C261.598 26.1846 261.974 25.96 262.276 25.5107C262.579 25.0615 262.809 24.4609 262.965 23.709C263.121 22.957 263.199 22.1318 263.199 21.2334C263.199 19.5635 262.857 18.1426 262.174 16.9707C261.5 15.7891 260.572 14.8906 259.391 14.2754C258.219 13.6504 256.886 13.3379 255.392 13.3379C253.819 13.3379 252.433 13.5869 251.231 14.085C250.03 14.583 249.02 15.2813 248.199 16.1797C247.389 17.0781 246.773 18.1377 246.354 19.3584C245.943 20.5791 245.738 21.9121 245.738 23.3574C245.738 25.1543 246.061 26.6777 246.705 27.9277C247.35 29.1777 248.297 30.125 249.547 30.7695C250.807 31.4141 252.345 31.7363 254.161 31.7363C255.323 31.7363 256.529 31.6094 257.779 31.3555C259.039 31.0918 260.191 30.7646 261.236 30.374V33.2012C260.279 33.6016 259.21 33.9189 258.028 34.1533C256.847 34.3975 255.597 34.5195 254.278 34.5195C251.798 34.5195 249.679 34.0801 247.921 33.2012C246.163 32.3223 244.815 31.0576 243.878 29.4072C242.95 27.7471 242.486 25.7598 242.486 23.4453C242.486 21.6289 242.784 19.9443 243.38 18.3916C243.985 16.8291 244.85 15.4668 245.973 14.3047C247.096 13.1328 248.448 12.2197 250.03 11.5654C251.622 10.9111 253.399 10.584 255.362 10.584C257.501 10.584 259.4 11.0186 261.061 11.8877C262.73 12.7471 264.039 13.9727 264.986 15.5645C265.934 17.1562 266.407 19.0557 266.407 21.2627ZM251.407 23.0938C251.407 24.1875 251.632 24.9785 252.081 25.4668C252.54 25.9453 253.155 26.1846 253.927 26.1846C254.933 26.1846 255.641 25.8184 256.051 25.0859C256.461 24.3535 256.7 23.3965 256.769 22.2148L256.959 18.9775C256.734 18.9287 256.48 18.8945 256.197 18.875C255.914 18.8457 255.606 18.8311 255.274 18.8311C254.327 18.8311 253.57 19.041 253.004 19.4609C252.438 19.8711 252.027 20.4033 251.773 21.0576C251.529 21.7021 251.407 22.3809 251.407 23.0938ZM276.91 32.293C275.289 32.293 273.907 32 272.765 31.4141C271.622 30.8184 270.753 29.9004 270.157 28.6602C269.562 27.4199 269.264 25.833 269.264 23.8994C269.264 21.8975 269.601 20.2666 270.274 19.0068C270.958 17.7373 271.9 16.8047 273.102 16.209C274.312 15.6133 275.714 15.3154 277.306 15.3154C278.438 15.3154 279.415 15.4277 280.235 15.6523C281.065 15.8672 281.788 16.126 282.403 16.4287L281.085 19.8857C280.382 19.6025 279.728 19.373 279.122 19.1973C278.517 19.0117 277.911 18.9189 277.306 18.9189C276.524 18.9189 275.875 19.1045 275.357 19.4756C274.84 19.8369 274.454 20.3838 274.2 21.1162C273.946 21.8486 273.819 22.7666 273.819 23.8701C273.819 24.9541 273.956 25.8525 274.229 26.5654C274.503 27.2783 274.898 27.8105 275.416 28.1621C275.934 28.5039 276.563 28.6748 277.306 28.6748C278.233 28.6748 279.059 28.5527 279.781 28.3086C280.504 28.0547 281.207 27.7031 281.891 27.2539V31.0771C281.207 31.5068 280.489 31.8145 279.737 32C278.995 32.1953 278.053 32.293 276.91 32.293ZM300.582 23.7822C300.582 25.1494 300.396 26.3604 300.025 27.415C299.664 28.4697 299.132 29.3633 298.429 30.0957C297.735 30.8184 296.896 31.3652 295.909 31.7363C294.933 32.1074 293.829 32.293 292.599 32.293C291.446 32.293 290.387 32.1074 289.42 31.7363C288.463 31.3652 287.628 30.8184 286.915 30.0957C286.212 29.3633 285.665 28.4697 285.274 27.415C284.894 26.3604 284.703 25.1494 284.703 23.7822C284.703 21.9658 285.025 20.4277 285.67 19.168C286.314 17.9082 287.232 16.9512 288.424 16.2969C289.615 15.6426 291.036 15.3154 292.687 15.3154C294.22 15.3154 295.577 15.6426 296.759 16.2969C297.95 16.9512 298.883 17.9082 299.557 19.168C300.24 20.4277 300.582 21.9658 300.582 23.7822ZM289.259 23.7822C289.259 24.8564 289.376 25.7598 289.61 26.4922C289.845 27.2246 290.211 27.7764 290.709 28.1475C291.207 28.5186 291.856 28.7041 292.657 28.7041C293.448 28.7041 294.088 28.5186 294.576 28.1475C295.074 27.7764 295.436 27.2246 295.66 26.4922C295.895 25.7598 296.012 24.8564 296.012 23.7822C296.012 22.6982 295.895 21.7998 295.66 21.0869C295.436 20.3643 295.074 19.8223 294.576 19.4609C294.078 19.0996 293.429 18.9189 292.628 18.9189C291.446 18.9189 290.587 19.3242 290.05 20.1348C289.522 20.9453 289.259 22.1611 289.259 23.7822ZM308.741 32H304.273V9.20703H308.741V32ZM328.473 15.623V32H325.045L324.444 29.9053H324.21C323.858 30.4619 323.419 30.916 322.892 31.2676C322.364 31.6191 321.783 31.8779 321.148 32.0439C320.514 32.21 319.854 32.293 319.171 32.293C317.999 32.293 316.979 32.0879 316.109 31.6777C315.24 31.2578 314.562 30.6084 314.073 29.7295C313.595 28.8506 313.355 27.708 313.355 26.3018V15.623H317.823V25.1885C317.823 26.3604 318.033 27.2441 318.453 27.8398C318.873 28.4355 319.542 28.7334 320.46 28.7334C321.368 28.7334 322.081 28.5283 322.599 28.1182C323.116 27.6982 323.478 27.0879 323.683 26.2871C323.897 25.4766 324.005 24.4902 324.005 23.3281V15.623H328.473ZM352.394 15.3154C354.249 15.3154 355.65 15.7939 356.598 16.751C357.555 17.6982 358.033 19.2217 358.033 21.3213V32H353.551V22.4346C353.551 21.2627 353.351 20.3789 352.95 19.7832C352.55 19.1875 351.93 18.8896 351.09 18.8896C349.908 18.8896 349.068 19.3145 348.57 20.1641C348.072 21.0039 347.823 22.21 347.823 23.7822V32H343.355V22.4346C343.355 21.6533 343.268 20.999 343.092 20.4717C342.916 19.9443 342.647 19.5488 342.286 19.2852C341.925 19.0215 341.461 18.8896 340.895 18.8896C340.064 18.8896 339.41 19.0996 338.932 19.5195C338.463 19.9297 338.126 20.54 337.921 21.3506C337.726 22.1514 337.628 23.1328 337.628 24.2949V32H333.16V15.623H336.573L337.174 17.7178H337.423C337.755 17.1514 338.17 16.6924 338.668 16.3408C339.176 15.9893 339.732 15.7305 340.338 15.5645C340.943 15.3984 341.559 15.3154 342.184 15.3154C343.385 15.3154 344.4 15.5107 345.23 15.9014C346.07 16.292 346.715 16.8975 347.164 17.7178H347.56C348.048 16.8779 348.736 16.2676 349.625 15.8867C350.523 15.5059 351.446 15.3154 352.394 15.3154ZM367.101 9.20703V14.5098C367.101 15.125 367.081 15.7354 367.042 16.3408C367.013 16.9463 366.974 17.415 366.925 17.7471H367.101C367.53 17.0732 368.116 16.502 368.858 16.0332C369.601 15.5547 370.562 15.3154 371.744 15.3154C373.58 15.3154 375.069 16.0332 376.212 17.4688C377.354 18.9043 377.926 21.0088 377.926 23.7822C377.926 25.6475 377.662 27.2148 377.135 28.4844C376.607 29.7441 375.87 30.6963 374.923 31.3408C373.976 31.9756 372.877 32.293 371.627 32.293C370.426 32.293 369.479 32.0781 368.785 31.6484C368.092 31.2188 367.53 30.7354 367.101 30.1982H366.793L366.046 32H362.633V9.20703H367.101ZM370.309 18.8896C369.527 18.8896 368.907 19.0508 368.448 19.373C367.989 19.6953 367.652 20.1787 367.438 20.8232C367.232 21.4678 367.12 22.2832 367.101 23.2695V23.7529C367.101 25.3447 367.335 26.5654 367.804 27.415C368.272 28.2549 369.127 28.6748 370.367 28.6748C371.285 28.6748 372.013 28.25 372.55 27.4004C373.097 26.5508 373.37 25.3252 373.37 23.7236C373.37 22.1221 373.097 20.916 372.55 20.1055C372.003 19.2949 371.256 18.8896 370.309 18.8896ZM386.085 15.623V32H381.617V15.623H386.085ZM383.858 9.20703C384.522 9.20703 385.094 9.36328 385.572 9.67578C386.051 9.97852 386.29 10.5498 386.29 11.3896C386.29 12.2197 386.051 12.7959 385.572 13.1182C385.094 13.4307 384.522 13.5869 383.858 13.5869C383.185 13.5869 382.608 13.4307 382.13 13.1182C381.661 12.7959 381.427 12.2197 381.427 11.3896C381.427 10.5498 381.661 9.97852 382.13 9.67578C382.608 9.36328 383.185 9.20703 383.858 9.20703ZM397.496 15.2861C399.693 15.2861 401.378 15.7646 402.55 16.7217C403.722 17.6787 404.308 19.1338 404.308 21.0869V32H401.188L400.323 29.7734H400.206C399.737 30.3594 399.259 30.8379 398.771 31.209C398.282 31.5801 397.721 31.8535 397.086 32.0293C396.451 32.2051 395.68 32.293 394.771 32.293C393.805 32.293 392.936 32.1074 392.164 31.7363C391.402 31.3652 390.802 30.7988 390.362 30.0371C389.923 29.2656 389.703 28.2891 389.703 27.1074C389.703 25.3691 390.313 24.0898 391.534 23.2695C392.755 22.4395 394.586 21.9805 397.027 21.8926L399.869 21.8047V21.0869C399.869 20.2275 399.645 19.5977 399.195 19.1973C398.746 18.7969 398.121 18.5967 397.32 18.5967C396.529 18.5967 395.753 18.709 394.991 18.9336C394.229 19.1582 393.468 19.4414 392.706 19.7832L391.227 16.7656C392.096 16.3066 393.067 15.9453 394.142 15.6816C395.226 15.418 396.344 15.2861 397.496 15.2861ZM399.869 24.4121L398.141 24.4707C396.695 24.5098 395.689 24.7686 395.123 25.2471C394.566 25.7256 394.288 26.3555 394.288 27.1367C394.288 27.8203 394.488 28.3086 394.889 28.6016C395.289 28.8848 395.812 29.0264 396.456 29.0264C397.413 29.0264 398.219 28.7432 398.873 28.1768C399.537 27.6104 399.869 26.8047 399.869 25.7598V24.4121ZM408.292 29.9053C408.292 28.9873 408.541 28.3428 409.039 27.9717C409.547 27.6006 410.157 27.415 410.87 27.415C411.563 27.415 412.159 27.6006 412.657 27.9717C413.165 28.3428 413.419 28.9873 413.419 29.9053C413.419 30.7842 413.165 31.4189 412.657 31.8096C412.159 32.2002 411.563 32.3955 410.87 32.3955C410.157 32.3955 409.547 32.2002 409.039 31.8096C408.541 31.4189 408.292 30.7842 408.292 29.9053ZM424.229 15.3154C425.743 15.3154 427.047 15.6084 428.141 16.1943C429.234 16.7705 430.079 17.6104 430.675 18.7139C431.271 19.8174 431.568 21.165 431.568 22.7568V24.9248H421.007C421.056 26.1846 421.432 27.1758 422.135 27.8984C422.848 28.6113 423.834 28.9678 425.094 28.9678C426.139 28.9678 427.096 28.8604 427.965 28.6455C428.834 28.4307 429.728 28.1084 430.646 27.6787V31.1357C429.835 31.5361 428.985 31.8291 428.097 32.0146C427.218 32.2002 426.148 32.293 424.889 32.293C423.248 32.293 421.793 31.9902 420.523 31.3848C419.264 30.7793 418.272 29.8564 417.55 28.6162C416.837 27.376 416.48 25.8135 416.48 23.9287C416.48 22.0146 416.803 20.4229 417.447 19.1533C418.102 17.874 419.01 16.917 420.172 16.2822C421.334 15.6377 422.687 15.3154 424.229 15.3154ZM424.259 18.4941C423.39 18.4941 422.667 18.7725 422.091 19.3291C421.524 19.8857 421.197 20.7598 421.109 21.9512H427.379C427.369 21.2871 427.247 20.6963 427.013 20.1787C426.788 19.6611 426.446 19.251 425.987 18.9482C425.538 18.6455 424.962 18.4941 424.259 18.4941ZM440.387 32.293C438.561 32.293 437.071 31.5801 435.919 30.1543C434.776 28.7188 434.205 26.6143 434.205 23.8408C434.205 21.0381 434.786 18.9189 435.948 17.4834C437.11 16.0381 438.629 15.3154 440.504 15.3154C441.285 15.3154 441.974 15.4229 442.569 15.6377C443.165 15.8525 443.678 16.1406 444.107 16.502C444.547 16.8633 444.918 17.2686 445.221 17.7178H445.367C445.309 17.4053 445.235 16.9463 445.147 16.3408C445.069 15.7256 445.03 15.0957 445.03 14.4512V9.20703H449.513V32H446.085L445.221 29.876H445.03C444.747 30.3252 444.391 30.7354 443.961 31.1064C443.541 31.4678 443.038 31.7559 442.452 31.9707C441.866 32.1855 441.178 32.293 440.387 32.293ZM441.954 28.7334C443.175 28.7334 444.034 28.3721 444.532 27.6494C445.04 26.917 445.309 25.8184 445.338 24.3535V23.8701C445.338 22.2783 445.094 21.0625 444.605 20.2227C444.117 19.373 443.209 18.9482 441.881 18.9482C440.895 18.9482 440.123 19.373 439.566 20.2227C439.01 21.0723 438.731 22.2979 438.731 23.8994C438.731 25.501 439.01 26.707 439.566 27.5176C440.133 28.3281 440.929 28.7334 441.954 28.7334ZM469.215 15.623V32H465.787L465.187 29.9053H464.952C464.601 30.4619 464.161 30.916 463.634 31.2676C463.106 31.6191 462.525 31.8779 461.891 32.0439C461.256 32.21 460.597 32.293 459.913 32.293C458.741 32.293 457.721 32.0879 456.852 31.6777C455.982 31.2578 455.304 30.6084 454.815 29.7295C454.337 28.8506 454.098 27.708 454.098 26.3018V15.623H458.565V25.1885C458.565 26.3604 458.775 27.2441 459.195 27.8398C459.615 28.4355 460.284 28.7334 461.202 28.7334C462.11 28.7334 462.823 28.5283 463.341 28.1182C463.858 27.6982 464.22 27.0879 464.425 26.2871C464.64 25.4766 464.747 24.4902 464.747 23.3281V15.623H469.215Z" fill="#0193E6"/>
<path d="M40.8 1H7.2C5.29044 1 3.45909 1.75857 2.10883 3.10883C0.75857 4.45909 0 6.29044 0 8.2V32.2C0 34.1096 0.75857 35.9409 2.10883 37.2912C3.45909 38.6414 5.29044 39.4 7.2 39.4H40.8C42.7096 39.4 44.5409 38.6414 45.8912 37.2912C47.2414 35.9409 48 34.1096 48 32.2V8.2C48 6.29044 47.2414 4.45909 45.8912 3.10883C44.5409 1.75857 42.7096 1 40.8 1V1ZM7.2 5.8H40.8C41.4365 5.8 42.047 6.05286 42.4971 6.50294C42.9471 6.95303 43.2 7.56348 43.2 8.2L24 19.912L4.8 8.2C4.8 7.56348 5.05286 6.95303 5.50294 6.50294C5.95303 6.05286 6.56348 5.8 7.2 5.8V5.8ZM43.2 32.2C43.2 32.8365 42.9471 33.447 42.4971 33.8971C42.047 34.3471 41.4365 34.6 40.8 34.6H7.2C6.56348 34.6 5.95303 34.3471 5.50294 33.8971C5.05286 33.447 4.8 32.8365 4.8 32.2V13.672L22.752 24.64C23.1168 24.8506 23.5307 24.9615 23.952 24.9615C24.3733 24.9615 24.7872 24.8506 25.152 24.64L43.2 13.672V32.2Z" fill="#0193E6"/>
</svg>
