<svg width="290" height="41" viewBox="0 0 290 41" fill="none" xmlns="http://www.w3.org/2000/svg">
<path d="M71.8252 19.9736H80.3213V31.0771C79.1982 31.4482 78.0312 31.7461 76.8203 31.9707C75.6094 32.1855 74.2373 32.293 72.7041 32.293C70.5752 32.293 68.7686 31.873 67.2842 31.0332C65.7998 30.1934 64.6719 28.9531 63.9004 27.3125C63.1289 25.6719 62.7432 23.6553 62.7432 21.2627C62.7432 19.0166 63.1729 17.0732 64.0322 15.4326C64.9014 13.792 66.166 12.5225 67.8262 11.624C69.4961 10.7256 71.5322 10.2764 73.9346 10.2764C75.0674 10.2764 76.1855 10.3984 77.2891 10.6426C78.3926 10.8867 79.3936 11.2041 80.292 11.5947L78.7832 15.2275C78.1289 14.8955 77.3818 14.6172 76.542 14.3926C75.7021 14.168 74.8232 14.0557 73.9053 14.0557C72.5869 14.0557 71.4395 14.3584 70.4629 14.9639C69.4961 15.5693 68.7441 16.4189 68.207 17.5127C67.6797 18.5967 67.416 19.876 67.416 21.3506C67.416 22.7471 67.6064 23.9873 67.9873 25.0713C68.3682 26.1455 68.9688 26.9902 69.7891 27.6055C70.6094 28.2109 71.6787 28.5137 72.9971 28.5137C73.6416 28.5137 74.1836 28.4844 74.623 28.4258C75.0723 28.3574 75.4922 28.2891 75.8828 28.2207V23.7529H71.8252V19.9736ZM99.9648 23.7822C99.9648 25.1494 99.7793 26.3604 99.4082 27.415C99.0469 28.4697 98.5146 29.3633 97.8115 30.0957C97.1182 30.8184 96.2783 31.3652 95.292 31.7363C94.3154 32.1074 93.2119 32.293 91.9814 32.293C90.8291 32.293 89.7695 32.1074 88.8027 31.7363C87.8457 31.3652 87.0107 30.8184 86.2979 30.0957C85.5947 29.3633 85.0479 28.4697 84.6572 27.415C84.2764 26.3604 84.0859 25.1494 84.0859 23.7822C84.0859 21.9658 84.4082 20.4277 85.0527 19.168C85.6973 17.9082 86.6152 16.9512 87.8066 16.2969C88.998 15.6426 90.4189 15.3154 92.0693 15.3154C93.6025 15.3154 94.96 15.6426 96.1416 16.2969C97.333 16.9512 98.2656 17.9082 98.9395 19.168C99.623 20.4277 99.9648 21.9658 99.9648 23.7822ZM88.6416 23.7822C88.6416 24.8564 88.7588 25.7598 88.9932 26.4922C89.2275 27.2246 89.5938 27.7764 90.0918 28.1475C90.5898 28.5186 91.2393 28.7041 92.04 28.7041C92.8311 28.7041 93.4707 28.5186 93.959 28.1475C94.457 27.7764 94.8184 27.2246 95.043 26.4922C95.2773 25.7598 95.3945 24.8564 95.3945 23.7822C95.3945 22.6982 95.2773 21.7998 95.043 21.0869C94.8184 20.3643 94.457 19.8223 93.959 19.4609C93.4609 19.0996 92.8115 18.9189 92.0107 18.9189C90.8291 18.9189 89.9697 19.3242 89.4326 20.1348C88.9053 20.9453 88.6416 22.1611 88.6416 23.7822ZM118.539 23.7822C118.539 25.1494 118.354 26.3604 117.982 27.415C117.621 28.4697 117.089 29.3633 116.386 30.0957C115.692 30.8184 114.853 31.3652 113.866 31.7363C112.89 32.1074 111.786 32.293 110.556 32.293C109.403 32.293 108.344 32.1074 107.377 31.7363C106.42 31.3652 105.585 30.8184 104.872 30.0957C104.169 29.3633 103.622 28.4697 103.231 27.415C102.851 26.3604 102.66 25.1494 102.66 23.7822C102.66 21.9658 102.982 20.4277 103.627 19.168C104.271 17.9082 105.189 16.9512 106.381 16.2969C107.572 15.6426 108.993 15.3154 110.644 15.3154C112.177 15.3154 113.534 15.6426 114.716 16.2969C115.907 16.9512 116.84 17.9082 117.514 19.168C118.197 20.4277 118.539 21.9658 118.539 23.7822ZM107.216 23.7822C107.216 24.8564 107.333 25.7598 107.567 26.4922C107.802 27.2246 108.168 27.7764 108.666 28.1475C109.164 28.5186 109.813 28.7041 110.614 28.7041C111.405 28.7041 112.045 28.5186 112.533 28.1475C113.031 27.7764 113.393 27.2246 113.617 26.4922C113.852 25.7598 113.969 24.8564 113.969 23.7822C113.969 22.6982 113.852 21.7998 113.617 21.0869C113.393 20.3643 113.031 19.8223 112.533 19.4609C112.035 19.0996 111.386 18.9189 110.585 18.9189C109.403 18.9189 108.544 19.3242 108.007 20.1348C107.479 20.9453 107.216 22.1611 107.216 23.7822ZM127.021 39.207C124.735 39.207 122.987 38.8066 121.776 38.0059C120.575 37.2148 119.975 36.1016 119.975 34.666C119.975 33.6797 120.282 32.8545 120.897 32.1904C121.513 31.5264 122.416 31.0527 123.607 30.7695C123.148 30.5742 122.748 30.2568 122.406 29.8174C122.064 29.3682 121.894 28.8945 121.894 28.3965C121.894 27.7715 122.074 27.2539 122.436 26.8438C122.797 26.4238 123.319 26.0137 124.003 25.6133C123.144 25.2422 122.46 24.6465 121.952 23.8262C121.454 23.0059 121.205 22.0391 121.205 20.9258C121.205 19.7344 121.464 18.7236 121.981 17.8936C122.509 17.0537 123.271 16.4141 124.267 15.9746C125.272 15.5352 126.493 15.3154 127.929 15.3154C128.231 15.3154 128.583 15.335 128.983 15.374C129.384 15.4131 129.75 15.457 130.082 15.5059C130.424 15.5547 130.653 15.5938 130.771 15.623H136.483V17.8936L133.92 18.5527C134.154 18.9141 134.33 19.2998 134.447 19.71C134.564 20.1201 134.623 20.5547 134.623 21.0137C134.623 22.7715 134.008 24.1436 132.777 25.1299C131.557 26.1064 129.857 26.5947 127.68 26.5947C127.162 26.5654 126.674 26.5264 126.215 26.4775C125.99 26.6533 125.819 26.8389 125.702 27.0342C125.585 27.2295 125.526 27.4346 125.526 27.6494C125.526 27.8643 125.614 28.0449 125.79 28.1914C125.976 28.3281 126.249 28.4355 126.61 28.5137C126.981 28.582 127.44 28.6162 127.987 28.6162H130.771C132.567 28.6162 133.935 29.002 134.872 29.7734C135.819 30.5449 136.293 31.6777 136.293 33.1719C136.293 35.0859 135.492 36.5703 133.891 37.625C132.299 38.6797 130.009 39.207 127.021 39.207ZM127.211 36.292C128.275 36.292 129.188 36.1895 129.95 35.9844C130.722 35.7891 131.312 35.5059 131.723 35.1348C132.133 34.7734 132.338 34.3389 132.338 33.8311C132.338 33.4209 132.216 33.0938 131.972 32.8496C131.737 32.6152 131.376 32.4492 130.888 32.3516C130.409 32.2539 129.794 32.2051 129.042 32.2051H126.728C126.181 32.2051 125.688 32.293 125.248 32.4688C124.818 32.6445 124.477 32.8887 124.223 33.2012C123.969 33.5234 123.842 33.8945 123.842 34.3145C123.842 34.9297 124.135 35.4131 124.721 35.7646C125.316 36.1162 126.146 36.292 127.211 36.292ZM127.929 23.8701C128.769 23.8701 129.384 23.6113 129.774 23.0938C130.165 22.5762 130.36 21.873 130.36 20.9844C130.36 19.998 130.155 19.2607 129.745 18.7725C129.345 18.2744 128.739 18.0254 127.929 18.0254C127.108 18.0254 126.493 18.2744 126.083 18.7725C125.673 19.2607 125.468 19.998 125.468 20.9844C125.468 21.873 125.668 22.5762 126.068 23.0938C126.479 23.6113 127.099 23.8701 127.929 23.8701ZM143.661 32H139.193V9.20703H143.661V32ZM155.116 15.3154C156.63 15.3154 157.934 15.6084 159.027 16.1943C160.121 16.7705 160.966 17.6104 161.562 18.7139C162.157 19.8174 162.455 21.165 162.455 22.7568V24.9248H151.894C151.942 26.1846 152.318 27.1758 153.021 27.8984C153.734 28.6113 154.721 28.9678 155.98 28.9678C157.025 28.9678 157.982 28.8604 158.852 28.6455C159.721 28.4307 160.614 28.1084 161.532 27.6787V31.1357C160.722 31.5361 159.872 31.8291 158.983 32.0146C158.104 32.2002 157.035 32.293 155.775 32.293C154.135 32.293 152.68 31.9902 151.41 31.3848C150.15 30.7793 149.159 29.8564 148.437 28.6162C147.724 27.376 147.367 25.8135 147.367 23.9287C147.367 22.0146 147.689 20.4229 148.334 19.1533C148.988 17.874 149.896 16.917 151.059 16.2822C152.221 15.6377 153.573 15.3154 155.116 15.3154ZM155.146 18.4941C154.276 18.4941 153.554 18.7725 152.978 19.3291C152.411 19.8857 152.084 20.7598 151.996 21.9512H158.266C158.256 21.2871 158.134 20.6963 157.899 20.1787C157.675 19.6611 157.333 19.251 156.874 18.9482C156.425 18.6455 155.849 18.4941 155.146 18.4941ZM186.874 26.0527C186.874 27.3223 186.566 28.4258 185.951 29.3633C185.336 30.3008 184.438 31.0234 183.256 31.5312C182.084 32.0391 180.658 32.293 178.979 32.293C178.236 32.293 177.509 32.2441 176.796 32.1465C176.093 32.0488 175.414 31.9072 174.76 31.7217C174.115 31.5264 173.5 31.2871 172.914 31.0039V26.7852C173.93 27.2344 174.984 27.6396 176.078 28.001C177.172 28.3623 178.256 28.543 179.33 28.543C180.072 28.543 180.668 28.4453 181.117 28.25C181.576 28.0547 181.908 27.7861 182.113 27.4443C182.318 27.1025 182.421 26.7119 182.421 26.2725C182.421 25.7354 182.24 25.2764 181.879 24.8955C181.518 24.5146 181.02 24.1582 180.385 23.8262C179.76 23.4941 179.052 23.1377 178.261 22.7568C177.763 22.5225 177.221 22.2393 176.635 21.9072C176.049 21.5654 175.492 21.1504 174.965 20.6621C174.438 20.1738 174.003 19.583 173.661 18.8896C173.329 18.1865 173.163 17.3467 173.163 16.3701C173.163 15.0908 173.456 13.9971 174.042 13.0889C174.628 12.1807 175.463 11.4873 176.547 11.0088C177.641 10.5205 178.93 10.2764 180.414 10.2764C181.527 10.2764 182.587 10.4082 183.593 10.6719C184.608 10.9258 185.668 11.2969 186.771 11.7852L185.307 15.3154C184.32 14.915 183.437 14.6074 182.655 14.3926C181.874 14.168 181.078 14.0557 180.268 14.0557C179.701 14.0557 179.218 14.1484 178.817 14.334C178.417 14.5098 178.114 14.7637 177.909 15.0957C177.704 15.418 177.602 15.7939 177.602 16.2236C177.602 16.7314 177.748 17.1611 178.041 17.5127C178.344 17.8545 178.793 18.1865 179.389 18.5088C179.994 18.8311 180.746 19.207 181.645 19.6367C182.738 20.1543 183.671 20.6963 184.442 21.2627C185.224 21.8193 185.824 22.4785 186.244 23.2402C186.664 23.9922 186.874 24.9297 186.874 26.0527ZM197.055 32.293C195.434 32.293 194.052 32 192.909 31.4141C191.767 30.8184 190.897 29.9004 190.302 28.6602C189.706 27.4199 189.408 25.833 189.408 23.8994C189.408 21.8975 189.745 20.2666 190.419 19.0068C191.103 17.7373 192.045 16.8047 193.246 16.209C194.457 15.6133 195.858 15.3154 197.45 15.3154C198.583 15.3154 199.56 15.4277 200.38 15.6523C201.21 15.8672 201.933 16.126 202.548 16.4287L201.229 19.8857C200.526 19.6025 199.872 19.373 199.267 19.1973C198.661 19.0117 198.056 18.9189 197.45 18.9189C196.669 18.9189 196.02 19.1045 195.502 19.4756C194.984 19.8369 194.599 20.3838 194.345 21.1162C194.091 21.8486 193.964 22.7666 193.964 23.8701C193.964 24.9541 194.101 25.8525 194.374 26.5654C194.647 27.2783 195.043 27.8105 195.561 28.1621C196.078 28.5039 196.708 28.6748 197.45 28.6748C198.378 28.6748 199.203 28.5527 199.926 28.3086C200.648 28.0547 201.352 27.7031 202.035 27.2539V31.0771C201.352 31.5068 200.634 31.8145 199.882 32C199.14 32.1953 198.197 32.293 197.055 32.293ZM210.312 9.20703V13.8506C210.312 14.6611 210.282 15.4326 210.224 16.165C210.175 16.8975 210.136 17.415 210.106 17.7178H210.341C210.692 17.1514 211.107 16.6924 211.586 16.3408C212.074 15.9893 212.611 15.7305 213.197 15.5645C213.783 15.3984 214.413 15.3154 215.087 15.3154C216.269 15.3154 217.299 15.5254 218.178 15.9453C219.057 16.3555 219.74 17.0049 220.229 17.8936C220.717 18.7725 220.961 19.915 220.961 21.3213V32H216.493V22.4346C216.493 21.2627 216.278 20.3789 215.849 19.7832C215.419 19.1875 214.755 18.8896 213.856 18.8896C212.958 18.8896 212.25 19.0996 211.732 19.5195C211.215 19.9297 210.849 20.54 210.634 21.3506C210.419 22.1514 210.312 23.1328 210.312 24.2949V32H205.844V9.20703H210.312ZM240.443 23.7822C240.443 25.1494 240.258 26.3604 239.887 27.415C239.525 28.4697 238.993 29.3633 238.29 30.0957C237.597 30.8184 236.757 31.3652 235.771 31.7363C234.794 32.1074 233.69 32.293 232.46 32.293C231.308 32.293 230.248 32.1074 229.281 31.7363C228.324 31.3652 227.489 30.8184 226.776 30.0957C226.073 29.3633 225.526 28.4697 225.136 27.415C224.755 26.3604 224.564 25.1494 224.564 23.7822C224.564 21.9658 224.887 20.4277 225.531 19.168C226.176 17.9082 227.094 16.9512 228.285 16.2969C229.477 15.6426 230.897 15.3154 232.548 15.3154C234.081 15.3154 235.438 15.6426 236.62 16.2969C237.812 16.9512 238.744 17.9082 239.418 19.168C240.102 20.4277 240.443 21.9658 240.443 23.7822ZM229.12 23.7822C229.12 24.8564 229.237 25.7598 229.472 26.4922C229.706 27.2246 230.072 27.7764 230.57 28.1475C231.068 28.5186 231.718 28.7041 232.519 28.7041C233.31 28.7041 233.949 28.5186 234.438 28.1475C234.936 27.7764 235.297 27.2246 235.521 26.4922C235.756 25.7598 235.873 24.8564 235.873 23.7822C235.873 22.6982 235.756 21.7998 235.521 21.0869C235.297 20.3643 234.936 19.8223 234.438 19.4609C233.939 19.0996 233.29 18.9189 232.489 18.9189C231.308 18.9189 230.448 19.3242 229.911 20.1348C229.384 20.9453 229.12 22.1611 229.12 23.7822ZM248.603 32H244.135V9.20703H248.603V32ZM260.014 15.2861C262.211 15.2861 263.896 15.7646 265.067 16.7217C266.239 17.6787 266.825 19.1338 266.825 21.0869V32H263.705L262.841 29.7734H262.724C262.255 30.3594 261.776 30.8379 261.288 31.209C260.8 31.5801 260.238 31.8535 259.604 32.0293C258.969 32.2051 258.197 32.293 257.289 32.293C256.322 32.293 255.453 32.1074 254.682 31.7363C253.92 31.3652 253.319 30.7988 252.88 30.0371C252.44 29.2656 252.221 28.2891 252.221 27.1074C252.221 25.3691 252.831 24.0898 254.052 23.2695C255.272 22.4395 257.104 21.9805 259.545 21.8926L262.387 21.8047V21.0869C262.387 20.2275 262.162 19.5977 261.713 19.1973C261.264 18.7969 260.639 18.5967 259.838 18.5967C259.047 18.5967 258.271 18.709 257.509 18.9336C256.747 19.1582 255.985 19.4414 255.224 19.7832L253.744 16.7656C254.613 16.3066 255.585 15.9453 256.659 15.6816C257.743 15.418 258.861 15.2861 260.014 15.2861ZM262.387 24.4121L260.658 24.4707C259.213 24.5098 258.207 24.7686 257.641 25.2471C257.084 25.7256 256.806 26.3555 256.806 27.1367C256.806 27.8203 257.006 28.3086 257.406 28.6016C257.807 28.8848 258.329 29.0264 258.974 29.0264C259.931 29.0264 260.736 28.7432 261.391 28.1768C262.055 27.6104 262.387 26.8047 262.387 25.7598V24.4121ZM280.58 15.3154C280.805 15.3154 281.063 15.3301 281.356 15.3594C281.659 15.3789 281.903 15.4082 282.089 15.4473L281.752 19.6367C281.605 19.5879 281.396 19.5537 281.122 19.5342C280.858 19.5049 280.629 19.4902 280.434 19.4902C279.857 19.4902 279.296 19.5635 278.749 19.71C278.212 19.8564 277.729 20.0957 277.299 20.4277C276.869 20.75 276.527 21.1797 276.273 21.7168C276.029 22.2441 275.907 22.8936 275.907 23.665V32H271.439V15.623H274.823L275.482 18.377H275.702C276.024 17.8203 276.425 17.3125 276.903 16.8535C277.392 16.3848 277.943 16.0137 278.559 15.7402C279.184 15.457 279.857 15.3154 280.58 15.3154Z" fill="#0193E6"/>
<path d="M51.7127 14.1606L49.1885 12.7723L26.4709 0.15145H26.1932C26.0385 0.0860207 25.8779 0.0353133 25.7137 0H25.2341H24.7797C24.6073 0.0353366 24.4383 0.0860217 24.2749 0.15145H23.9972L1.27963 12.7723C0.891161 12.9925 0.568046 13.3117 0.343244 13.6975C0.118442 14.0833 0 14.5219 0 14.9684C0 15.4149 0.118442 15.8534 0.343244 16.2392C0.568046 16.625 0.891161 16.9442 1.27963 17.1644L7.56483 20.6478V32.6124C7.56483 34.6207 8.36264 36.5468 9.78277 37.9669C11.2029 39.3871 13.129 40.1849 15.1374 40.1849H35.3308C37.3391 40.1849 39.2652 39.3871 40.6854 37.9669C42.1055 36.5468 42.9033 34.6207 42.9033 32.6124V20.6478L47.9516 17.8207V25.0398C47.9516 25.7093 48.2176 26.3513 48.691 26.8247C49.1643 27.2981 49.8064 27.564 50.4758 27.564C51.1453 27.564 51.7873 27.2981 52.2607 26.8247C52.7341 26.3513 53 25.7093 53 25.0398V16.3567C52.9992 15.9094 52.8796 15.4704 52.6534 15.0845C52.4272 14.6986 52.1026 14.3798 51.7127 14.1606V14.1606ZM37.8549 32.6124C37.8549 33.2818 37.589 33.9238 37.1156 34.3972C36.6423 34.8706 36.0002 35.1365 35.3308 35.1365H15.1374C14.4679 35.1365 13.8259 34.8706 13.3525 34.3972C12.8791 33.9238 12.6132 33.2818 12.6132 32.6124V23.4496L23.9972 29.76L24.3758 29.9115H24.603C24.8125 29.9379 25.0245 29.9379 25.2341 29.9115C25.4436 29.9379 25.6556 29.9379 25.8651 29.9115H26.0923C26.2263 29.8832 26.3544 29.832 26.4709 29.76L37.8549 23.4496V32.6124ZM25.2341 24.6864L7.71628 14.9431L25.2341 5.1998L42.7518 14.9431L25.2341 24.6864Z" fill="#0193E6"/>
</svg>
