<svg width="215" height="50" viewBox="0 0 215 50" fill="none" xmlns="http://www.w3.org/2000/svg">
<path d="M46.3028 0.000349572H3.69718C3.21826 -0.00626189 2.74271 0.0809672 2.2977 0.257055C1.85269 0.433144 1.44694 0.694641 1.10362 1.02662C0.760291 1.35859 0.48612 1.75454 0.29676 2.19184C0.1074 2.62915 0.00656035 3.09925 0 3.5753V46.4247C0.00656035 46.9007 0.1074 47.3708 0.29676 47.8082C0.48612 48.2455 0.760291 48.6414 1.10362 48.9734C1.44694 49.3054 1.85269 49.5669 2.2977 49.7429C2.74271 49.919 3.21826 50.0063 3.69718 49.9996H46.3028C46.7817 50.0063 47.2573 49.919 47.7023 49.7429C48.1473 49.5669 48.5531 49.3054 48.8964 48.9734C49.2397 48.6414 49.5139 48.2455 49.7032 47.8082C49.8926 47.3708 49.9934 46.9007 50 46.4247V3.5753C49.9934 3.09925 49.8926 2.62915 49.7032 2.19184C49.5139 1.75454 49.2397 1.35859 48.8964 1.02662C48.5531 0.694641 48.1473 0.433144 47.7023 0.257055C47.2573 0.0809672 46.7817 -0.00626189 46.3028 0.000349572V0.000349572ZM15.166 41.8498H7.62072V19.3501H15.166V41.8498ZM11.3934 16.2001C10.3528 16.2001 9.3548 15.7892 8.619 15.0579C7.88319 14.3265 7.46982 13.3345 7.46982 12.3002C7.46982 11.2658 7.88319 10.2739 8.619 9.5425C9.3548 8.81112 10.3528 8.40023 11.3934 8.40023C11.9459 8.33794 12.5055 8.39237 13.0354 8.55994C13.5653 8.72751 14.0537 9.00445 14.4685 9.37262C14.8832 9.7408 15.2151 10.1919 15.4423 10.6964C15.6696 11.2009 15.787 11.7474 15.787 12.3002C15.787 12.8529 15.6696 13.3994 15.4423 13.9039C15.2151 14.4085 14.8832 14.8596 14.4685 15.2277C14.0537 15.5959 13.5653 15.8728 13.0354 16.0404C12.5055 16.208 11.9459 16.2624 11.3934 16.2001V16.2001ZM42.3793 41.8498H34.834V29.7749C34.834 26.75 33.7525 24.775 31.0111 24.775C30.1626 24.7812 29.3365 25.0457 28.644 25.5329C27.9514 26.0201 27.4258 26.7067 27.1378 27.5C26.941 28.0876 26.8557 28.7064 26.8863 29.3249V41.8248H19.341C19.341 41.8248 19.341 21.375 19.341 19.3251H26.8863V22.5C27.5718 21.3178 28.5687 20.3439 29.7697 19.6831C30.9708 19.0223 32.3304 18.6997 33.7022 18.7501C38.7324 18.7501 42.3793 21.975 42.3793 28.8999V41.8498Z" fill="#0193E6"/>
<path d="M60.6953 36V14.584H65.2363V32.25H73.9229V36H60.6953ZM81.7744 19.623V36H77.3066V19.623H81.7744ZM79.5479 13.207C80.2119 13.207 80.7832 13.3633 81.2617 13.6758C81.7402 13.9785 81.9795 14.5498 81.9795 15.3896C81.9795 16.2197 81.7402 16.7959 81.2617 17.1182C80.7832 17.4307 80.2119 17.5869 79.5479 17.5869C78.874 17.5869 78.2979 17.4307 77.8193 17.1182C77.3506 16.7959 77.1162 16.2197 77.1162 15.3896C77.1162 14.5498 77.3506 13.9785 77.8193 13.6758C78.2979 13.3633 78.874 13.207 79.5479 13.207ZM95.7783 19.3154C97.5264 19.3154 98.9326 19.7939 99.9971 20.751C101.062 21.6982 101.594 23.2217 101.594 25.3213V36H97.126V26.4346C97.126 25.2627 96.9111 24.3789 96.4814 23.7832C96.0615 23.1875 95.3975 22.8896 94.4893 22.8896C93.1221 22.8896 92.1895 23.3535 91.6914 24.2812C91.1934 25.209 90.9443 26.5469 90.9443 28.2949V36H86.4766V19.623H89.8896L90.4902 21.7178H90.7393C91.0908 21.1514 91.5254 20.6924 92.043 20.3408C92.5703 19.9893 93.1514 19.7305 93.7861 19.5645C94.4307 19.3984 95.0947 19.3154 95.7783 19.3154ZM110.661 13.207V23.4023C110.661 24.0176 110.637 24.6328 110.588 25.248C110.539 25.8633 110.485 26.4785 110.427 27.0938H110.485C110.788 26.6641 111.096 26.2393 111.408 25.8193C111.73 25.3994 112.072 24.9941 112.434 24.6035L117.019 19.623H122.058L115.554 26.7275L122.453 36H117.297L112.58 29.3643L110.661 30.9023V36H106.193V13.207H110.661ZM131.55 19.3154C133.063 19.3154 134.367 19.6084 135.461 20.1943C136.555 20.7705 137.399 21.6104 137.995 22.7139C138.591 23.8174 138.889 25.165 138.889 26.7568V28.9248H128.327C128.376 30.1846 128.752 31.1758 129.455 31.8984C130.168 32.6113 131.154 32.9678 132.414 32.9678C133.459 32.9678 134.416 32.8604 135.285 32.6455C136.154 32.4307 137.048 32.1084 137.966 31.6787V35.1357C137.155 35.5361 136.306 35.8291 135.417 36.0146C134.538 36.2002 133.469 36.293 132.209 36.293C130.568 36.293 129.113 35.9902 127.844 35.3848C126.584 34.7793 125.593 33.8564 124.87 32.6162C124.157 31.376 123.801 29.8135 123.801 27.9287C123.801 26.0146 124.123 24.4229 124.768 23.1533C125.422 21.874 126.33 20.917 127.492 20.2822C128.654 19.6377 130.007 19.3154 131.55 19.3154ZM131.579 22.4941C130.71 22.4941 129.987 22.7725 129.411 23.3291C128.845 23.8857 128.518 24.7598 128.43 25.9512H134.699C134.689 25.2871 134.567 24.6963 134.333 24.1787C134.108 23.6611 133.767 23.251 133.308 22.9482C132.858 22.6455 132.282 22.4941 131.579 22.4941ZM147.707 36.293C145.881 36.293 144.392 35.5801 143.239 34.1543C142.097 32.7188 141.525 30.6143 141.525 27.8408C141.525 25.0381 142.106 22.9189 143.269 21.4834C144.431 20.0381 145.949 19.3154 147.824 19.3154C148.605 19.3154 149.294 19.4229 149.89 19.6377C150.485 19.8525 150.998 20.1406 151.428 20.502C151.867 20.8633 152.238 21.2686 152.541 21.7178H152.688C152.629 21.4053 152.556 20.9463 152.468 20.3408C152.39 19.7256 152.351 19.0957 152.351 18.4512V13.207H156.833V36H153.405L152.541 33.876H152.351C152.067 34.3252 151.711 34.7354 151.281 35.1064C150.861 35.4678 150.358 35.7559 149.772 35.9707C149.187 36.1855 148.498 36.293 147.707 36.293ZM149.274 32.7334C150.495 32.7334 151.354 32.3721 151.853 31.6494C152.36 30.917 152.629 29.8184 152.658 28.3535V27.8701C152.658 26.2783 152.414 25.0625 151.926 24.2227C151.438 23.373 150.529 22.9482 149.201 22.9482C148.215 22.9482 147.443 23.373 146.887 24.2227C146.33 25.0723 146.052 26.2979 146.052 27.8994C146.052 29.501 146.33 30.707 146.887 31.5176C147.453 32.3281 148.249 32.7334 149.274 32.7334ZM161.857 36V14.584H166.398V36H161.857ZM180.739 19.3154C182.487 19.3154 183.894 19.7939 184.958 20.751C186.022 21.6982 186.555 23.2217 186.555 25.3213V36H182.087V26.4346C182.087 25.2627 181.872 24.3789 181.442 23.7832C181.022 23.1875 180.358 22.8896 179.45 22.8896C178.083 22.8896 177.15 23.3535 176.652 24.2812C176.154 25.209 175.905 26.5469 175.905 28.2949V36H171.438V19.623H174.851L175.451 21.7178H175.7C176.052 21.1514 176.486 20.6924 177.004 20.3408C177.531 19.9893 178.112 19.7305 178.747 19.5645C179.392 19.3984 180.056 19.3154 180.739 19.3154Z" fill="#0193E6"/>
</svg>
